<?xml version="1.0" standalone="no"?>
<!DOCTYPE svg PUBLIC "-//W3C//DTD SVG 20010904//EN"
 "http://www.w3.org/TR/2001/REC-SVG-20010904/DTD/svg10.dtd">
<svg version="1.0" xmlns="http://www.w3.org/2000/svg"
 width="512.000000pt" height="512.000000pt" viewBox="0 0 512.000000 512.000000"
 preserveAspectRatio="xMidYMid meet">

<g transform="translate(0.000000,512.000000) scale(0.100000,-0.100000)"
fill="#000000" stroke="none">
<path d="M1747 5107 c-45 -14 -102 -67 -112 -105 -4 -15 -40 -207 -79 -427
-70 -397 -71 -400 -96 -403 -135 -18 -990 -176 -1037 -192 -175 -60 -327 -219
-386 -405 -17 -55 -22 -93 -22 -180 1 -98 25 -248 232 -1420 128 -720 239
-1352 248 -1403 29 -171 78 -275 179 -381 73 -75 164 -131 266 -162 147 -45
124 -48 1665 225 765 135 1404 251 1422 257 45 15 81 45 103 89 15 29 28 40
52 45 18 4 67 23 108 43 156 76 284 243 324 423 9 41 125 688 258 1439 263
1487 264 1492 224 1625 -68 229 -256 403 -486 448 -68 14 -2706 477 -2800 492
-14 2 -42 -2 -63 -8z m1128 -1517 c547 -97 919 -167 933 -176 48 -31 47 -37
-38 -522 -79 -451 -81 -457 -110 -484 -17 -16 -39 -28 -49 -28 -10 0 -435 74
-946 164 -876 155 -929 166 -953 190 -18 18 -26 35 -25 58 2 51 153 900 165
921 12 23 62 45 91 40 12 -2 431 -75 932 -163z m-860 -1730 c1643 -290 2044
-362 2085 -375 65 -21 114 -66 147 -133 82 -168 -25 -361 -211 -379 -39 -3
-355 49 -1301 216 -1722 304 -1551 271 -1547 301 8 56 84 485 87 491 5 7 44 1
740 -121z m525 -991 c409 -72 746 -132 748 -134 5 -5 -32 -12 -1133 -206 -769
-135 -1041 -179 -1074 -175 -95 13 -197 98 -221 184 -17 62 -12 132 14 187 23
50 87 117 130 137 30 13 756 145 776 141 8 -2 350 -62 760 -134z"/>
</g>
</svg>
